# xmcd
#
# Track frame offsets:
#	150
#	19595
#	42852
#
# Disc length: 835 seconds
#
# Revision: 1
# Processed by: cddbd v1.5.1PL0 Copyright (c) Steve Scherf et al.
# Submitted via: CDex 1.50Beta5
#
DISCID=18034103
DTITLE=Angelina - Babybayboo
DYEAR=1900
DGENRE=Pop
TTITLE0=Babybayboo
TTITLE1=Say What？〜A Life Discussion〜
TTITLE2=babybayboo（DJ Krush Remix）
EXTD=
EXTT0=
EXTT1=
EXTT2=
PLAYORDER=
